<svg width="146" height="50" viewBox="0 0 146 50" fill="none" xmlns="http://www.w3.org/2000/svg">
<path d="M4.57582 22.5877H0.564453V0.901672H19.075V4.91304H4.57582V9.73801H15.0515V13.7494H4.57582V18.5743H19.075V22.5857H4.57582V22.5877Z" fill="white"/>
<path d="M24.8145 22.5877H20.793V10.157C20.793 5.04459 24.9359 0.901672 30.0483 0.901672C35.1606 0.901672 39.3035 5.04459 39.3035 10.157V22.5877H35.282V18.5764H24.8124V22.5877H24.8145ZM24.8145 10.157V14.563H35.2841V10.157C35.2841 7.2648 32.9404 4.92113 30.0483 4.92113C27.1561 4.92113 24.8124 7.2648 24.8124 10.157H24.8145Z" fill="white"/>
<path d="M55.5267 16.1639C55.5267 14.8301 54.4459 13.7514 53.1142 13.7514H47.4473C43.8994 13.7514 41.0234 10.8734 41.0234 7.32552C41.0234 3.77763 43.8994 0.901672 47.4473 0.901672H53.1142C56.6621 0.901672 59.5381 3.77763 59.5381 7.32552H55.5267C55.5267 5.99177 54.4459 4.91304 53.1142 4.91304H47.4473C46.1156 4.91304 45.0348 5.99177 45.0348 7.32552C45.0348 8.65927 46.1156 9.73801 47.4473 9.73801H53.1142C56.6621 9.73801 59.5381 12.616 59.5381 16.1639C59.5381 19.7118 56.6621 22.5877 53.1142 22.5877H47.4473C43.8994 22.5877 41.0234 19.7118 41.0234 16.1639H45.0348C45.0348 17.4976 46.1156 18.5764 47.4473 18.5764H53.1142C54.4459 18.5764 55.5267 17.4976 55.5267 16.1639Z" fill="white"/>
<path d="M61.2832 9.31907V0.899658H65.3047V9.31907C65.3047 12.2092 67.6484 14.5529 70.5405 14.5529C73.4327 14.5529 75.7743 12.2092 75.7743 9.31907V0.899658H79.7958V9.31907C79.7958 13.7413 76.6931 17.4369 72.5462 18.3537V22.5857H68.5348V18.3537C64.3879 17.4369 61.2852 13.7413 61.2852 9.31907H61.2832Z" fill="white"/>
<path d="M0.564453 49.7402V28.0562H12.6512C16.1991 28.0562 19.075 30.9322 19.075 34.4801C19.075 36.1923 18.4031 37.7466 17.3122 38.8982C18.4051 40.0498 19.075 41.6042 19.075 43.3164C19.075 46.8643 16.1991 49.7402 12.6512 49.7402H0.564453ZM4.57582 36.8925H12.6512C13.9829 36.8925 15.0636 35.8138 15.0636 34.4801C15.0636 33.1463 13.9829 32.0676 12.6512 32.0676H4.57582V36.8925ZM4.57582 45.7289H12.6512C13.9829 45.7289 15.0636 44.6501 15.0636 43.3164C15.0636 41.9826 13.9829 40.9039 12.6512 40.9039H4.57582V45.7289Z" fill="white"/>
<path d="M20.8242 40.485V28.0542H24.8457V40.485C24.8457 43.3771 27.1894 45.7208 30.0815 45.7208C32.9737 45.7208 35.3173 43.3771 35.3173 40.485V28.0542H39.3368V40.485C39.3368 45.5973 35.1939 49.7403 30.0815 49.7403C24.9692 49.7403 20.8262 45.5973 20.8262 40.485H20.8242Z" fill="white"/>
<path d="M55.5579 43.3164C55.5579 41.9827 54.4772 40.9039 53.1454 40.9039H47.4785C43.9306 40.9039 41.0547 38.0259 41.0547 34.478C41.0547 30.9302 43.9306 28.0542 47.4785 28.0542H53.1454C56.6933 28.0542 59.5693 30.9302 59.5693 34.478H55.5579C55.5579 33.1443 54.4772 32.0656 53.1454 32.0656H47.4785C46.1468 32.0656 45.0661 33.1443 45.0661 34.478C45.0661 35.8118 46.1468 36.8905 47.4785 36.8905H53.1454C56.6933 36.8905 59.5693 39.7685 59.5693 43.3164C59.5693 46.8643 56.6933 49.7403 53.1454 49.7403H47.4785C43.9306 49.7403 41.0547 46.8643 41.0547 43.3164H45.0661C45.0661 44.6502 46.1468 45.7289 47.4785 45.7289H53.1454C54.4772 45.7289 55.5579 44.6502 55.5579 43.3164Z" fill="white"/>
<path d="M61.3145 49.7403V28.0542H65.3258V49.7403H61.3145Z" fill="white"/>
<path d="M67.045 28.0542H71.0564H71.7951L76.2983 35.152L78.6723 38.8983L81.5422 43.4196V28.0522H85.5535V49.7383H80.8035L76.2983 42.6384L73.9222 38.8942L71.0543 34.3728V49.7362H67.043V28.0502L67.045 28.0542Z" fill="white"/>
<path d="M91.2868 49.7403H87.2754V28.0542H105.786V32.0656H91.2868V36.8905H105.786V40.9019H91.2868V45.7269H105.786V49.7382H91.2868V49.7403Z" fill="white"/>
<path d="M122.007 43.3164C122.007 41.9827 120.926 40.9039 119.595 40.9039H113.928C110.38 40.9039 107.504 38.0259 107.504 34.478C107.504 30.9302 110.38 28.0542 113.928 28.0542H119.595C123.143 28.0542 126.019 30.9302 126.019 34.478H122.007C122.007 33.1443 120.926 32.0656 119.595 32.0656H113.928C112.596 32.0656 111.515 33.1443 111.515 34.478C111.515 35.8118 112.596 36.8905 113.928 36.8905H119.595C123.143 36.8905 126.019 39.7685 126.019 43.3164C126.019 46.8643 123.143 49.7403 119.595 49.7403H113.928C110.38 49.7403 107.504 46.8643 107.504 43.3164H111.515C111.515 44.6502 112.596 45.7289 113.928 45.7289H119.595C120.926 45.7289 122.007 44.6502 122.007 43.3164Z" fill="white"/>
<path d="M141.804 43.3164C141.804 41.9827 140.723 40.9039 139.392 40.9039H133.725C130.177 40.9039 127.301 38.0259 127.301 34.478C127.301 30.9302 130.177 28.0542 133.725 28.0542H139.392C142.939 28.0542 145.815 30.9302 145.815 34.478H141.804C141.804 33.1443 140.723 32.0656 139.392 32.0656H133.725C132.393 32.0656 131.312 33.1443 131.312 34.478C131.312 35.8118 132.393 36.8905 133.725 36.8905H139.392C142.939 36.8905 145.815 39.7685 145.815 43.3164C145.815 46.8643 142.939 49.7403 139.392 49.7403H133.725C130.177 49.7403 127.301 46.8643 127.301 43.3164H131.312C131.312 44.6502 132.393 45.7289 133.725 45.7289H139.392C140.723 45.7289 141.804 44.6502 141.804 43.3164Z" fill="white"/>
</svg>
