<svg width="123" height="42" viewBox="0 0 123 42" fill="none" xmlns="http://www.w3.org/2000/svg">
<path d="M4.30601 18.4924H0.962891V0.418945H16.3898V3.76207H4.30601V7.78326H13.0366V11.1264H4.30601V15.1476H16.3898V18.4907H4.30601V18.4924Z" fill="#101010"/>
<path d="M21.1738 18.4924H17.8223V8.13242C17.8223 3.87171 21.275 0.418945 25.5357 0.418945C29.7964 0.418945 33.2492 3.87171 33.2492 8.13242V18.4924H29.8977V15.1493H21.1721V18.4924H21.1738ZM21.1738 8.13242V11.8045H29.8993V8.13242C29.8993 5.72206 27.9461 3.76882 25.5357 3.76882C23.1254 3.76882 21.1721 5.72206 21.1721 8.13242H21.1738Z" fill="#101010"/>
<path d="M46.7708 13.1387C46.7708 12.0271 45.8701 11.1281 44.7602 11.1281H40.0373C37.0805 11.1281 34.6836 8.72952 34.6836 5.77266C34.6836 2.81581 37.0805 0.418945 40.0373 0.418945H44.7602C47.717 0.418945 50.1139 2.81581 50.1139 5.77266H46.7708C46.7708 4.6611 45.8701 3.76207 44.7602 3.76207H40.0373C38.9274 3.76207 38.0267 4.6611 38.0267 5.77266C38.0267 6.88423 38.9274 7.78326 40.0373 7.78326H44.7602C47.717 7.78326 50.1139 10.1818 50.1139 13.1387C50.1139 16.0955 47.717 18.4924 44.7602 18.4924H40.0373C37.0805 18.4924 34.6836 16.0955 34.6836 13.1387H38.0267C38.0267 14.2502 38.9274 15.1493 40.0373 15.1493H44.7602C45.8701 15.1493 46.7708 14.2502 46.7708 13.1387Z" fill="#101010"/>
<path d="M51.5664 7.43408V0.417236H54.918V7.43408C54.918 9.84275 56.8712 11.796 59.2816 11.796C61.6919 11.796 63.6435 9.84275 63.6435 7.43408V0.417236H66.995V7.43408C66.995 11.1196 64.4093 14.1996 60.9531 14.9637V18.4907H57.61V14.9637C54.1539 14.1996 51.5681 11.1196 51.5681 7.43408H51.5664Z" fill="#101010"/>
<path d="M0.962891 41.1218V23.05H11.0361C13.993 23.05 16.3898 25.4469 16.3898 28.4038C16.3898 29.8307 15.8298 31.1262 14.9207 32.0859C15.8315 33.0457 16.3898 34.3411 16.3898 35.7681C16.3898 38.7249 13.993 41.1218 11.0361 41.1218H0.962891ZM4.30601 30.4144H11.0361C12.146 30.4144 13.0467 29.5153 13.0467 28.4038C13.0467 27.2922 12.146 26.3932 11.0361 26.3932H4.30601V30.4144ZM4.30601 37.7787H11.0361C12.146 37.7787 13.0467 36.8796 13.0467 35.7681C13.0467 34.6565 12.146 33.7575 11.0361 33.7575H4.30601V37.7787Z" fill="#101010"/>
<path d="M17.8477 33.4086V23.0486H21.1992V33.4086C21.1992 35.8189 23.1525 37.7722 25.5628 37.7722C27.9732 37.7722 29.9264 35.8189 29.9264 33.4086V23.0486H33.2763V33.4086C33.2763 37.6693 29.8235 41.122 25.5628 41.122C21.3021 41.122 17.8493 37.6693 17.8493 33.4086H17.8477Z" fill="#101010"/>
<path d="M46.7962 35.7683C46.7962 34.6567 45.8955 33.7577 44.7856 33.7577H40.0627C37.1058 33.7577 34.709 31.3592 34.709 28.4023C34.709 25.4454 37.1058 23.0486 40.0627 23.0486H44.7856C47.7424 23.0486 50.1393 25.4454 50.1393 28.4023H46.7962C46.7962 27.2907 45.8955 26.3917 44.7856 26.3917H40.0627C38.9528 26.3917 38.0521 27.2907 38.0521 28.4023C38.0521 29.5139 38.9528 30.4129 40.0627 30.4129H44.7856C47.7424 30.4129 50.1393 32.8114 50.1393 35.7683C50.1393 38.7252 47.7424 41.122 44.7856 41.122H40.0627C37.1058 41.122 34.709 38.7252 34.709 35.7683H38.0521C38.0521 36.8799 38.9528 37.7789 40.0627 37.7789H44.7856C45.8955 37.7789 46.7962 36.8799 46.7962 35.7683Z" fill="#101010"/>
<path d="M51.5918 41.122V23.0486H54.9349V41.122H51.5918Z" fill="#101010"/>
<path d="M56.3689 23.0485H59.712H60.3277L64.0807 28.9639L66.0592 32.0861L68.451 35.8543V23.0469H71.7941V41.1203H67.8354L64.0807 35.2032L62.1004 32.0827L59.7103 28.3145V41.1186H56.3672V23.0452L56.3689 23.0485Z" fill="#101010"/>
<path d="M76.5736 41.122H73.2305V23.0486H88.6574V26.3917H76.5736V30.4129H88.6574V33.756H76.5736V37.7772H88.6574V41.1203H76.5736V41.122Z" fill="#101010"/>
<path d="M102.175 35.7683C102.175 34.6567 101.274 33.7577 100.164 33.7577H95.4416C92.4847 33.7577 90.0879 31.3592 90.0879 28.4023C90.0879 25.4454 92.4847 23.0486 95.4416 23.0486H100.164C103.121 23.0486 105.518 25.4454 105.518 28.4023H102.175C102.175 27.2907 101.274 26.3917 100.164 26.3917H95.4416C94.3317 26.3917 93.431 27.2907 93.431 28.4023C93.431 29.5139 94.3317 30.4129 95.4416 30.4129H100.164C103.121 30.4129 105.518 32.8114 105.518 35.7683C105.518 38.7252 103.121 41.122 100.164 41.122H95.4416C92.4847 41.122 90.0879 38.7252 90.0879 35.7683H93.431C93.431 36.8799 94.3317 37.7789 95.4416 37.7789H100.164C101.274 37.7789 102.175 36.8799 102.175 35.7683Z" fill="#101010"/>
<path d="M118.673 35.7683C118.673 34.6567 117.772 33.7577 116.663 33.7577H111.94C108.983 33.7577 106.586 31.3592 106.586 28.4023C106.586 25.4454 108.983 23.0486 111.94 23.0486H116.663C119.619 23.0486 122.016 25.4454 122.016 28.4023H118.673C118.673 27.2907 117.772 26.3917 116.663 26.3917H111.94C110.83 26.3917 109.929 27.2907 109.929 28.4023C109.929 29.5139 110.83 30.4129 111.94 30.4129H116.663C119.619 30.4129 122.016 32.8114 122.016 35.7683C122.016 38.7252 119.619 41.122 116.663 41.122H111.94C108.983 41.122 106.586 38.7252 106.586 35.7683H109.929C109.929 36.8799 110.83 37.7789 111.94 37.7789H116.663C117.772 37.7789 118.673 36.8799 118.673 35.7683Z" fill="#101010"/>
</svg>
