<svg width="278" height="66" viewBox="0 0 278 66" fill="none" xmlns="http://www.w3.org/2000/svg">
<path d="M87.8423 29.2226H82.459V0.119507H107.301V5.50283H87.8423V11.978H101.901V17.3614H87.8423V23.8366H107.301V29.2199H87.8423V29.2226Z" fill="white"/>
<path d="M115.002 29.2226H109.605V12.5403C109.605 5.67938 115.165 0.119507 122.026 0.119507C128.887 0.119507 134.447 5.67938 134.447 12.5403V29.2226H129.05V23.8393H115V29.2226H115.002ZM115.002 12.5403V18.4532H129.053V12.5403C129.053 8.65895 125.908 5.5137 122.026 5.5137C118.145 5.5137 115 8.65895 115 12.5403H115.002Z" fill="white"/>
<path d="M156.221 20.6017C156.221 18.8118 154.771 17.3641 152.984 17.3641H145.379C140.617 17.3641 136.758 13.5018 136.758 8.74044C136.758 3.9791 140.617 0.119507 145.379 0.119507H152.984C157.745 0.119507 161.605 3.9791 161.605 8.74044H156.221C156.221 6.95052 154.771 5.50283 152.984 5.50283H145.379C143.592 5.50283 142.141 6.95052 142.141 8.74044C142.141 10.5304 143.592 11.978 145.379 11.978H152.984C157.745 11.978 161.605 15.8403 161.605 20.6017C161.605 25.363 157.745 29.2226 152.984 29.2226H145.379C140.617 29.2226 136.758 25.363 136.758 20.6017H142.141C142.141 22.3916 143.592 23.8393 145.379 23.8393H152.984C154.771 23.8393 156.221 22.3916 156.221 20.6017Z" fill="white"/>
<path d="M163.945 11.4157V0.116699H169.342V11.4157C169.342 15.2943 172.487 18.4396 176.369 18.4396C180.25 18.4396 183.393 15.2943 183.393 11.4157V0.116699H188.79V11.4157C188.79 17.3504 184.626 22.31 179.06 23.5404V29.2198H173.677V23.5404C168.112 22.31 163.948 17.3504 163.948 11.4157H163.945Z" fill="white"/>
<path d="M82.459 65.6617V36.5613H98.6796C103.441 36.5613 107.301 40.4209 107.301 45.1822C107.301 47.48 106.399 49.566 104.935 51.1115C106.401 52.6569 107.301 54.7429 107.301 57.0407C107.301 61.8021 103.441 65.6617 98.6796 65.6617H82.459ZM87.8423 48.4198H98.6796C100.467 48.4198 101.917 46.9721 101.917 45.1822C101.917 43.3923 100.467 41.9446 98.6796 41.9446H87.8423V48.4198ZM87.8423 60.2783H98.6796C100.467 60.2783 101.917 58.8307 101.917 57.0407C101.917 55.2508 100.467 53.8031 98.6796 53.8031H87.8423V60.2783Z" fill="white"/>
<path d="M109.646 53.2411V36.5587H115.043V53.2411C115.043 57.1224 118.189 60.2676 122.07 60.2676C125.951 60.2676 129.097 57.1224 129.097 53.2411V36.5587H134.491V53.2411C134.491 60.102 128.931 65.6618 122.07 65.6618C115.209 65.6618 109.649 60.102 109.649 53.2411H109.646Z" fill="white"/>
<path d="M156.261 57.0409C156.261 55.251 154.81 53.8033 153.023 53.8033H145.418C140.656 53.8033 136.797 49.941 136.797 45.1796C136.797 40.4183 140.656 36.5587 145.418 36.5587H153.023C157.784 36.5587 161.644 40.4183 161.644 45.1796H156.261C156.261 43.3897 154.81 41.942 153.023 41.942H145.418C143.631 41.942 142.18 43.3897 142.18 45.1796C142.18 46.9696 143.631 48.4172 145.418 48.4172H153.023C157.784 48.4172 161.644 52.2796 161.644 57.0409C161.644 61.8022 157.784 65.6618 153.023 65.6618H145.418C140.656 65.6618 136.797 61.8022 136.797 57.0409H142.18C142.18 58.8308 143.631 60.2785 145.418 60.2785H153.023C154.81 60.2785 156.261 58.8308 156.261 57.0409Z" fill="white"/>
<path d="M163.986 65.6618V36.5587H169.37V65.6618H163.986Z" fill="white"/>
<path d="M171.677 36.5587H177.06H178.051L184.095 46.084L187.281 51.1116L191.132 57.1794V36.5559H196.515V65.659H190.141L184.095 56.1309L180.906 51.1061L177.057 45.0383V65.6563H171.674V36.5532L171.677 36.5587Z" fill="white"/>
<path d="M204.211 65.6618H198.828V36.5587H223.67V41.942H204.211V48.4172H223.67V53.8006H204.211V60.2758H223.67V65.6591H204.211V65.6618Z" fill="white"/>
<path d="M245.438 57.0409C245.438 55.251 243.988 53.8033 242.201 53.8033H234.596C229.834 53.8033 225.975 49.941 225.975 45.1796C225.975 40.4183 229.834 36.5587 234.596 36.5587H242.201C246.962 36.5587 250.822 40.4183 250.822 45.1796H245.438C245.438 43.3897 243.988 41.942 242.201 41.942H234.596C232.808 41.942 231.358 43.3897 231.358 45.1796C231.358 46.9696 232.808 48.4172 234.596 48.4172H242.201C246.962 48.4172 250.822 52.2796 250.822 57.0409C250.822 61.8022 246.962 65.6618 242.201 65.6618H234.596C229.834 65.6618 225.975 61.8022 225.975 57.0409H231.358C231.358 58.8308 232.808 60.2785 234.596 60.2785H242.201C243.988 60.2785 245.438 58.8308 245.438 57.0409Z" fill="white"/>
<path d="M272.005 57.0409C272.005 55.251 270.554 53.8033 268.767 53.8033H261.162C256.401 53.8033 252.541 49.941 252.541 45.1796C252.541 40.4183 256.401 36.5587 261.162 36.5587H268.767C273.528 36.5587 277.388 40.4183 277.388 45.1796H272.005C272.005 43.3897 270.554 41.942 268.767 41.942H261.162C259.375 41.942 257.924 43.3897 257.924 45.1796C257.924 46.9696 259.375 48.4172 261.162 48.4172H268.767C273.528 48.4172 277.388 52.2796 277.388 57.0409C277.388 61.8022 273.528 65.6618 268.767 65.6618H261.162C256.401 65.6618 252.541 61.8022 252.541 57.0409H257.924C257.924 58.8308 259.375 60.2785 261.162 60.2785H268.767C270.554 60.2785 272.005 58.8308 272.005 57.0409Z" fill="white"/>
<path d="M65.5397 32.8918C65.5397 50.9901 50.8681 65.6616 32.7698 65.6616C14.6716 65.6616 0 50.9901 0 32.8918C0 14.7935 14.6716 0.121948 32.7698 0.121948C50.8681 0.121948 65.5397 14.7935 65.5397 32.8918ZM10.1337 32.8918C10.1337 45.3934 20.2683 55.5279 32.7698 55.5279C45.2714 55.5279 55.4059 45.3934 55.4059 32.8918C55.4059 20.3902 45.2714 10.2557 32.7698 10.2557C20.2683 10.2557 10.1337 20.3902 10.1337 32.8918Z" fill="url(#paint0_linear_17_1227)"/>
<defs>
<linearGradient id="paint0_linear_17_1227" x1="0" y1="32.8828" x2="65.5397" y2="32.8828" gradientUnits="userSpaceOnUse">
<stop stop-color="#FF2828"/>
<stop offset="0.510417" stop-color="#78A5FD"/>
<stop offset="1" stop-color="#37F3FF"/>
</linearGradient>
</defs>
</svg>
