<svg width="48" height="51" viewBox="0 0 48 51" fill="none" xmlns="http://www.w3.org/2000/svg">
<path d="M19.8497 46.4167H9.82682C6.57909 46.4049 3.94587 43.7814 3.92201 40.5337V20.5968C3.92839 19.5096 4.41488 18.4808 5.25114 17.786L7.01604 16.4787C5.86459 14.814 5.86459 14.814 5.86459 14.814C5.86459 14.814 5.86459 14.814 4.74999 13.3629L2.94151 14.7138C1.11724 16.1253 0.0346675 18.2905 0 20.5968V40.5555C0.0119829 45.9777 4.40459 50.3703 9.82682 50.3823H19.8497C20.9328 50.3823 21.8107 49.5043 21.8107 48.4213C21.8107 47.3383 20.9328 46.4603 19.8497 46.4603V46.4167Z" fill="url(#paint0_linear_17_640)"/>
<path d="M47.0857 20.5533C47.0628 18.2639 46.0154 16.1052 44.2314 14.6702L29.1752 2.66453C25.8666 0.00505269 21.1535 0.00505269 17.8449 2.66453L13.0732 6.12897C12.1766 6.77278 11.9718 8.02145 12.6156 8.91796C13.2594 9.81447 14.5081 10.0193 15.4046 9.37553L20.2417 5.75856C22.1403 4.1955 24.8798 4.1955 26.7784 5.75856L41.8346 17.7643C42.7011 18.4512 43.2131 19.4912 43.2291 20.5968V40.5555C43.2291 43.8046 40.5952 46.4385 37.3461 46.4385H32.8793C32.422 46.4385 32.0513 46.0678 32.0513 45.6106V36.6117C32.0514 33.7442 29.7331 31.4162 26.8656 31.4042H20.3289C18.9477 31.4042 17.6232 31.9528 16.6466 32.9294C15.67 33.906 15.1213 35.2306 15.1213 36.6117V40.0544C17.0782 40.0446 17.0782 40.0446 17.0782 40.0446C17.0782 40.0446 17.0782 40.0446 19.0433 40.0544V36.6117C19.0375 36.2728 19.168 35.9457 19.4057 35.704C19.6433 35.4623 19.9681 35.3261 20.3071 35.3262H26.8438C27.5417 35.3262 28.1075 35.892 28.1075 36.5899V45.6106C28.1195 48.2374 30.2524 50.3606 32.8793 50.3606H37.2371C42.6643 50.3606 47.0639 45.9609 47.0639 40.5337L47.0857 20.5533Z" fill="url(#paint1_linear_17_640)"/>
<defs>
<linearGradient id="paint0_linear_17_640" x1="0" y1="31.8675" x2="21.8107" y2="31.8675" gradientUnits="userSpaceOnUse">
<stop stop-color="#FF7C7C"/>
<stop offset="0.510417" stop-color="#78A5FD"/>
<stop offset="1" stop-color="#7CF7FF"/>
</linearGradient>
<linearGradient id="paint1_linear_17_640" x1="12.2402" y1="25.5084" x2="47.0857" y2="25.5084" gradientUnits="userSpaceOnUse">
<stop stop-color="#FF7C7C"/>
<stop offset="0.510417" stop-color="#78A5FD"/>
<stop offset="1" stop-color="#7CF7FF"/>
</linearGradient>
</defs>
</svg>
