<svg width="692" height="165" viewBox="0 0 692 165" fill="none" xmlns="http://www.w3.org/2000/svg">
<path d="M219.095 73.4483H205.668V0.859863H267.627V14.2869H219.095V30.4372H254.16V43.8642H219.095V60.0145H267.627V73.4415H219.095V73.4483Z" fill="#101010"/>
<path d="M286.84 73.4482H273.379V31.8394C273.379 14.7271 287.246 0.859772 304.359 0.859772C321.471 0.859772 335.338 14.7271 335.338 31.8394V73.4482H321.877V60.0212H286.833V73.4482H286.84ZM286.84 31.8394V46.5874H321.884V31.8394C321.884 22.1587 314.039 14.3139 304.359 14.3139C294.678 14.3139 286.833 22.1587 286.833 31.8394H286.84Z" fill="#101010"/>
<path d="M389.642 51.946C389.642 47.4817 386.024 43.8709 381.566 43.8709H362.598C350.722 43.8709 341.096 34.2376 341.096 22.3619C341.096 10.4863 350.722 0.859772 362.598 0.859772H381.566C393.442 0.859772 403.069 10.4863 403.069 22.3619H389.642C389.642 17.8976 386.024 14.2868 381.566 14.2868H362.598C358.14 14.2868 354.523 17.8976 354.523 22.3619C354.523 26.8263 358.14 30.4371 362.598 30.4371H381.566C393.442 30.4371 403.069 40.0704 403.069 51.946C403.069 63.8217 393.442 73.4482 381.566 73.4482H362.598C350.722 73.4482 341.096 63.8217 341.096 51.946H354.523C354.523 56.4104 358.14 60.0212 362.598 60.0212H381.566C386.024 60.0212 389.642 56.4104 389.642 51.946Z" fill="#101010"/>
<path d="M408.908 29.0348V0.852997H422.369V29.0348C422.369 38.7087 430.214 46.5536 439.895 46.5536C449.575 46.5536 457.413 38.7087 457.413 29.0348V0.852997H470.874V29.0348C470.874 43.837 460.489 56.2072 446.608 59.276V73.4414H433.181V59.276C419.3 56.2072 408.915 43.837 408.915 29.0348H408.908Z" fill="#101010"/>
<path d="M205.668 164.334V91.7528H246.125C258.001 91.7528 267.627 101.379 267.627 113.255C267.627 118.986 265.378 124.189 261.727 128.044C265.385 131.898 267.627 137.101 267.627 142.832C267.627 154.708 258.001 164.334 246.125 164.334H205.668ZM219.095 121.33H246.125C250.583 121.33 254.2 117.719 254.2 113.255C254.2 108.791 250.583 105.18 246.125 105.18H219.095V121.33ZM219.095 150.907H246.125C250.583 150.907 254.2 147.297 254.2 142.832C254.2 138.368 250.583 134.757 246.125 134.757H219.095V150.907Z" fill="#101010"/>
<path d="M273.479 133.355V91.746H286.939V133.355C286.939 143.036 294.784 150.88 304.465 150.88C314.146 150.88 321.99 143.036 321.99 133.355V91.746H335.445V133.355C335.445 150.467 321.577 164.334 304.465 164.334C287.353 164.334 273.485 150.467 273.485 133.355H273.479Z" fill="#101010"/>
<path d="M389.743 142.832C389.743 138.368 386.126 134.757 381.668 134.757H362.699C350.824 134.757 341.197 125.124 341.197 113.248C341.197 101.373 350.824 91.746 362.699 91.746H381.668C393.544 91.746 403.17 101.373 403.17 113.248H389.743C389.743 108.784 386.126 105.173 381.668 105.173H362.699C358.242 105.173 354.624 108.784 354.624 113.248C354.624 117.713 358.242 121.323 362.699 121.323H381.668C393.544 121.323 403.17 130.957 403.17 142.832C403.17 154.708 393.544 164.334 381.668 164.334H362.699C350.824 164.334 341.197 154.708 341.197 142.832H354.624C354.624 147.297 358.242 150.907 362.699 150.907H381.668C386.126 150.907 389.743 147.297 389.743 142.832Z" fill="#101010"/>
<path d="M409.01 164.334V91.746H422.437V164.334H409.01Z" fill="#101010"/>
<path d="M428.194 91.746H441.621H444.094L459.167 115.504L467.114 128.044L476.72 143.178V91.7392H490.147V164.328H474.247L459.167 140.563L451.214 128.03L441.615 112.896V164.321H428.188V91.7325L428.194 91.746Z" fill="#101010"/>
<path d="M509.339 164.334H495.912V91.746H557.871V105.173H509.339V121.323H557.871V134.75H509.339V150.901H557.871V164.328H509.339V164.334Z" fill="#101010"/>
<path d="M612.169 142.832C612.169 138.368 608.551 134.757 604.094 134.757H585.125C573.25 134.757 563.623 125.124 563.623 113.248C563.623 101.373 573.25 91.746 585.125 91.746H604.094C615.969 91.746 625.596 101.373 625.596 113.248H612.169C612.169 108.784 608.551 105.173 604.094 105.173H585.125C580.668 105.173 577.05 108.784 577.05 113.248C577.05 117.713 580.668 121.323 585.125 121.323H604.094C615.969 121.323 625.596 130.957 625.596 142.832C625.596 154.708 615.969 164.334 604.094 164.334H585.125C573.25 164.334 563.623 154.708 563.623 142.832H577.05C577.05 147.297 580.668 150.907 585.125 150.907H604.094C608.551 150.907 612.169 147.297 612.169 142.832Z" fill="#101010"/>
<path d="M678.431 142.832C678.431 138.368 674.813 134.757 670.355 134.757H651.387C639.511 134.757 629.885 125.124 629.885 113.248C629.885 101.373 639.511 91.746 651.387 91.746H670.355C682.231 91.746 691.858 101.373 691.858 113.248H678.431C678.431 108.784 674.813 105.173 670.355 105.173H651.387C646.929 105.173 643.312 108.784 643.312 113.248C643.312 117.713 646.929 121.323 651.387 121.323H670.355C682.231 121.323 691.858 130.957 691.858 142.832C691.858 154.708 682.231 164.334 670.355 164.334H651.387C639.511 164.334 629.885 154.708 629.885 142.832H643.312C643.312 147.297 646.929 150.907 651.387 150.907H670.355C674.813 150.907 678.431 147.297 678.431 142.832Z" fill="#101010"/>
<path d="M163.468 82.6008C163.468 127.741 126.874 164.335 81.734 164.335C36.5935 164.335 0 127.741 0 82.6008C0 37.4604 36.5935 0.866882 81.734 0.866882C126.874 0.866882 163.468 37.4604 163.468 82.6008ZM25.2754 82.6008C25.2754 113.782 50.5527 139.059 81.734 139.059C112.915 139.059 138.193 113.782 138.193 82.6008C138.193 51.4196 112.915 26.1423 81.734 26.1423C50.5527 26.1423 25.2754 51.4196 25.2754 82.6008Z" fill="url(#paint0_linear_17_1193)"/>
<defs>
<linearGradient id="paint0_linear_17_1193" x1="1.78233e-10" y1="82.5784" x2="163.468" y2="82.5784" gradientUnits="userSpaceOnUse">
<stop stop-color="#FF7C7C"/>
<stop offset="0.510417" stop-color="#78A5FD"/>
<stop offset="1" stop-color="#7CF7FF"/>
</linearGradient>
</defs>
</svg>
