<svg width="487" height="164" viewBox="0 0 487 164" fill="none" xmlns="http://www.w3.org/2000/svg">
<path d="M14.095 72.8525H0.667969V0.26413H62.6272V13.6911H14.095V29.8415H49.1596V43.2684H14.095V59.4188H62.6272V72.8458H14.095V72.8525Z" fill="white"/>
<path d="M81.8398 72.8524H68.3789V31.2437C68.3789 14.1314 82.2462 0.264038 99.3585 0.264038C116.471 0.264038 130.338 14.1314 130.338 31.2437V72.8524H116.877V59.4255H81.833V72.8524H81.8398ZM81.8398 31.2437V45.9917H116.884V31.2437C116.884 21.563 109.039 13.7181 99.3585 13.7181C89.6778 13.7181 81.833 21.563 81.833 31.2437H81.8398Z" fill="white"/>
<path d="M184.642 51.3503C184.642 46.8859 181.024 43.2751 176.566 43.2751H157.598C145.722 43.2751 136.096 33.6418 136.096 21.7662C136.096 9.89055 145.722 0.264038 157.598 0.264038H176.566C188.442 0.264038 198.069 9.89055 198.069 21.7662H184.642C184.642 17.3018 181.024 13.691 176.566 13.691H157.598C153.14 13.691 149.523 17.3018 149.523 21.7662C149.523 26.2306 153.14 29.8414 157.598 29.8414H176.566C188.442 29.8414 198.069 39.4747 198.069 51.3503C198.069 63.2259 188.442 72.8524 176.566 72.8524H157.598C145.722 72.8524 136.096 63.2259 136.096 51.3503H149.523C149.523 55.8147 153.14 59.4255 157.598 59.4255H176.566C181.024 59.4255 184.642 55.8147 184.642 51.3503Z" fill="white"/>
<path d="M203.908 28.4391V0.257294H217.369V28.4391C217.369 38.113 225.214 45.9578 234.895 45.9578C244.575 45.9578 252.413 38.113 252.413 28.4391V0.257294H265.874V28.4391C265.874 43.2413 255.489 55.6115 241.608 58.6803V72.8457H228.181V58.6803C214.3 55.6115 203.915 43.2413 203.915 28.4391H203.908Z" fill="white"/>
<path d="M0.667969 163.739V91.1569H41.1251C53.0007 91.1569 62.6272 100.783 62.6272 112.659C62.6272 118.39 60.3781 123.593 56.7267 127.448C60.3849 131.302 62.6272 136.505 62.6272 142.236C62.6272 154.112 53.0007 163.739 41.1251 163.739H0.667969ZM14.095 120.734H41.1251C45.5827 120.734 49.2002 117.123 49.2002 112.659C49.2002 108.195 45.5827 104.584 41.1251 104.584H14.095V120.734ZM14.095 150.312H41.1251C45.5827 150.312 49.2002 146.701 49.2002 142.236C49.2002 137.772 45.5827 134.161 41.1251 134.161H14.095V150.312Z" fill="white"/>
<path d="M68.4785 132.759V91.1503H81.9394V132.759C81.9394 142.44 89.7842 150.285 99.4649 150.285C109.146 150.285 116.99 142.44 116.99 132.759V91.1503H130.445V132.759C130.445 149.871 116.577 163.739 99.4649 163.739C82.3526 163.739 68.4853 149.871 68.4853 132.759H68.4785Z" fill="white"/>
<path d="M184.743 142.237C184.743 137.772 181.126 134.161 176.668 134.161H157.699C145.824 134.161 136.197 124.528 136.197 112.652C136.197 100.777 145.824 91.1503 157.699 91.1503H176.668C188.544 91.1503 198.17 100.777 198.17 112.652H184.743C184.743 108.188 181.126 104.577 176.668 104.577H157.699C153.242 104.577 149.624 108.188 149.624 112.652C149.624 117.117 153.242 120.728 157.699 120.728H176.668C188.544 120.728 198.17 130.361 198.17 142.237C198.17 154.112 188.544 163.739 176.668 163.739H157.699C145.824 163.739 136.197 154.112 136.197 142.237H149.624C149.624 146.701 153.242 150.312 157.699 150.312H176.668C181.126 150.312 184.743 146.701 184.743 142.237Z" fill="white"/>
<path d="M204.01 163.739V91.1503H217.437V163.739H204.01Z" fill="white"/>
<path d="M223.194 91.1503H236.621H239.094L254.167 114.908L262.114 127.448L271.72 142.582V91.1435H285.147V163.732H269.247L254.167 139.967L246.214 127.434L236.614 112.3V163.725H223.188V91.1367L223.194 91.1503Z" fill="white"/>
<path d="M304.341 163.739H290.914V91.1503H352.873V104.577H304.341V120.728H352.873V134.155H304.341V150.305H352.873V163.732H304.341V163.739Z" fill="white"/>
<path d="M407.169 142.237C407.169 137.772 403.551 134.161 399.094 134.161H380.125C368.25 134.161 358.623 124.528 358.623 112.652C358.623 100.777 368.25 91.1503 380.125 91.1503H399.094C410.969 91.1503 420.596 100.777 420.596 112.652H407.169C407.169 108.188 403.551 104.577 399.094 104.577H380.125C375.668 104.577 372.05 108.188 372.05 112.652C372.05 117.117 375.668 120.728 380.125 120.728H399.094C410.969 120.728 420.596 130.361 420.596 142.237C420.596 154.112 410.969 163.739 399.094 163.739H380.125C368.25 163.739 358.623 154.112 358.623 142.237H372.05C372.05 146.701 375.668 150.312 380.125 150.312H399.094C403.551 150.312 407.169 146.701 407.169 142.237Z" fill="white"/>
<path d="M473.431 142.237C473.431 137.772 469.813 134.161 465.355 134.161H446.387C434.511 134.161 424.885 124.528 424.885 112.652C424.885 100.777 434.511 91.1503 446.387 91.1503H465.355C477.231 91.1503 486.858 100.777 486.858 112.652H473.431C473.431 108.188 469.813 104.577 465.355 104.577H446.387C441.929 104.577 438.312 108.188 438.312 112.652C438.312 117.117 441.929 120.728 446.387 120.728H465.355C477.231 120.728 486.858 130.361 486.858 142.237C486.858 154.112 477.231 163.739 465.355 163.739H446.387C434.511 163.739 424.885 154.112 424.885 142.237H438.312C438.312 146.701 441.929 150.312 446.387 150.312H465.355C469.813 150.312 473.431 146.701 473.431 142.237Z" fill="white"/>
</svg>
