<svg width="487" height="165" viewBox="0 0 487 165" fill="none" xmlns="http://www.w3.org/2000/svg">
<path d="M14.095 73.4483H0.667969V0.859863H62.6273V14.2869H14.095V30.4372H49.1596V43.8642H14.095V60.0145H62.6273V73.4415H14.095V73.4483Z" fill="#101010"/>
<path d="M81.8398 73.4482H68.3789V31.8394C68.3789 14.7271 82.2463 0.859772 99.3586 0.859772C116.471 0.859772 130.338 14.7271 130.338 31.8394V73.4482H116.877V60.0212H81.833V73.4482H81.8398ZM81.8398 31.8394V46.5874H116.884V31.8394C116.884 22.1587 109.039 14.3139 99.3586 14.3139C89.6778 14.3139 81.833 22.1587 81.833 31.8394H81.8398Z" fill="#101010"/>
<path d="M184.642 51.946C184.642 47.4817 181.024 43.8709 176.566 43.8709H157.598C145.722 43.8709 136.096 34.2376 136.096 22.3619C136.096 10.4863 145.722 0.859772 157.598 0.859772H176.566C188.442 0.859772 198.069 10.4863 198.069 22.3619H184.642C184.642 17.8976 181.024 14.2868 176.566 14.2868H157.598C153.14 14.2868 149.523 17.8976 149.523 22.3619C149.523 26.8263 153.14 30.4371 157.598 30.4371H176.566C188.442 30.4371 198.069 40.0704 198.069 51.946C198.069 63.8217 188.442 73.4482 176.566 73.4482H157.598C145.722 73.4482 136.096 63.8217 136.096 51.946H149.523C149.523 56.4104 153.14 60.0212 157.598 60.0212H176.566C181.024 60.0212 184.642 56.4104 184.642 51.946Z" fill="#101010"/>
<path d="M203.908 29.0348V0.852997H217.369V29.0348C217.369 38.7087 225.214 46.5536 234.895 46.5536C244.575 46.5536 252.413 38.7087 252.413 29.0348V0.852997H265.874V29.0348C265.874 43.837 255.489 56.2072 241.608 59.276V73.4414H228.181V59.276C214.3 56.2072 203.915 43.837 203.915 29.0348H203.908Z" fill="#101010"/>
<path d="M0.667969 164.334V91.7528H41.1251C53.0007 91.7528 62.6273 101.379 62.6273 113.255C62.6273 118.986 60.3781 124.189 56.7267 128.044C60.3849 131.898 62.6273 137.101 62.6273 142.832C62.6273 154.708 53.0007 164.334 41.1251 164.334H0.667969ZM14.095 121.33H41.1251C45.5827 121.33 49.2003 117.719 49.2003 113.255C49.2003 108.791 45.5827 105.18 41.1251 105.18H14.095V121.33ZM14.095 150.907H41.1251C45.5827 150.907 49.2003 147.297 49.2003 142.832C49.2003 138.368 45.5827 134.757 41.1251 134.757H14.095V150.907Z" fill="#101010"/>
<path d="M68.4785 133.355V91.746H81.9394V133.355C81.9394 143.036 89.7842 150.88 99.4649 150.88C109.146 150.88 116.99 143.036 116.99 133.355V91.746H130.445V133.355C130.445 150.467 116.577 164.334 99.4649 164.334C82.3526 164.334 68.4853 150.467 68.4853 133.355H68.4785Z" fill="#101010"/>
<path d="M184.743 142.832C184.743 138.368 181.126 134.757 176.668 134.757H157.699C145.824 134.757 136.197 125.124 136.197 113.248C136.197 101.373 145.824 91.746 157.699 91.746H176.668C188.544 91.746 198.17 101.373 198.17 113.248H184.743C184.743 108.784 181.126 105.173 176.668 105.173H157.699C153.242 105.173 149.624 108.784 149.624 113.248C149.624 117.713 153.242 121.323 157.699 121.323H176.668C188.544 121.323 198.17 130.957 198.17 142.832C198.17 154.708 188.544 164.334 176.668 164.334H157.699C145.824 164.334 136.197 154.708 136.197 142.832H149.624C149.624 147.297 153.242 150.907 157.699 150.907H176.668C181.126 150.907 184.743 147.297 184.743 142.832Z" fill="#101010"/>
<path d="M204.01 164.334V91.746H217.437V164.334H204.01Z" fill="#101010"/>
<path d="M223.194 91.746H236.621H239.094L254.167 115.504L262.114 128.044L271.72 143.178V91.7392H285.147V164.328H269.247L254.167 140.563L246.214 128.03L236.615 112.896V164.321H223.188V91.7325L223.194 91.746Z" fill="#101010"/>
<path d="M304.339 164.334H290.912V91.746H352.871V105.173H304.339V121.323H352.871V134.75H304.339V150.901H352.871V164.328H304.339V164.334Z" fill="#101010"/>
<path d="M407.169 142.832C407.169 138.368 403.551 134.757 399.094 134.757H380.125C368.25 134.757 358.623 125.124 358.623 113.248C358.623 101.373 368.25 91.746 380.125 91.746H399.094C410.969 91.746 420.596 101.373 420.596 113.248H407.169C407.169 108.784 403.551 105.173 399.094 105.173H380.125C375.668 105.173 372.05 108.784 372.05 113.248C372.05 117.713 375.668 121.323 380.125 121.323H399.094C410.969 121.323 420.596 130.957 420.596 142.832C420.596 154.708 410.969 164.334 399.094 164.334H380.125C368.25 164.334 358.623 154.708 358.623 142.832H372.05C372.05 147.297 375.668 150.907 380.125 150.907H399.094C403.551 150.907 407.169 147.297 407.169 142.832Z" fill="#101010"/>
<path d="M473.431 142.832C473.431 138.368 469.813 134.757 465.355 134.757H446.387C434.511 134.757 424.885 125.124 424.885 113.248C424.885 101.373 434.511 91.746 446.387 91.746H465.355C477.231 91.746 486.858 101.373 486.858 113.248H473.431C473.431 108.784 469.813 105.173 465.355 105.173H446.387C441.929 105.173 438.312 108.784 438.312 113.248C438.312 117.713 441.929 121.323 446.387 121.323H465.355C477.231 121.323 486.858 130.957 486.858 142.832C486.858 154.708 477.231 164.334 465.355 164.334H446.387C434.511 164.334 424.885 154.708 424.885 142.832H438.312C438.312 147.297 441.929 150.907 446.387 150.907H465.355C469.813 150.907 473.431 147.297 473.431 142.832Z" fill="#101010"/>
</svg>
