<svg xmlns="http://www.w3.org/2000/svg" id="Layer_1" data-name="Layer 1" viewBox="0 0 223.75 88.42"><defs><style>.cls-1{fill:#ff0000}</style></defs><path d="M175.04 33.29c-20 0-32.67 10.37-32.67 27.58s12.64 27.55 32.67 27.55 32.67-10.37 32.67-27.53-12.68-27.6-32.67-27.6Zm0 40c-5.44 0-5.56-7-5.56-12.44s.12-12.48 5.56-12.48 5.51 7 5.51 12.48-.07 12.46-5.51 12.46Z" class="cls-1"/><rect width="25.35" height="52.7" y="34.5" class="cls-1" rx="2.1"/><rect width="25.35" height="17.61" y="11.38" class="cls-1" rx="2.1"/><rect width="25.35" height="52.7" x="35.41" y="34.5" class="cls-1" rx="2.1"/><rect width="25.35" height="17.61" x="35.41" y="11.38" class="cls-1" rx="2.1"/><path d="M122.53 58.98a2.11 2.11 0 0 1 .11-2.4l14.32-18.69a2.11 2.11 0 0 0-1.67-3.39h-23.27a2.08 2.08 0 0 0-1.73.92l-13.73 20h-.44V13.48a2.1 2.1 0 0 0-2.1-2.1H72.91a2.1 2.1 0 0 0-2.1 2.1V85.1a2.1 2.1 0 0 0 2.1 2.1h21.11a2.1 2.1 0 0 0 2.1-2.1V61.65h.44l13.56 24.47a2.09 2.09 0 0 0 1.84 1.08h24.49a2.1 2.1 0 0 0 1.78-3.22ZM164.47 13.14a30.46 30.46 0 0 0 3.8 3.64c1.49 1.41 3.05 3.29 2.93 5.44a5.58 5.58 0 0 1-1 2.66 18.66 18.66 0 0 1-2.49 3.01 2.2 2.2 0 0 0 0 3.18l1.36 1.26a2.2 2.2 0 0 0 3 0c.5-.5 1-1 1.46-1.54a1.87 1.87 0 0 0 .3.33l1.37 1.27a2.22 2.22 0 0 0 3.05-.07c.5-.5 1-1 1.45-1.53a2.28 2.28 0 0 0 .29.33l1.36 1.25a2.2 2.2 0 0 0 3.05-.06 27.7 27.7 0 0 0 2.32-2.54 9.22 9.22 0 0 0 1.53-3 6.24 6.24 0 0 0 .16-2.55 6.07 6.07 0 0 0-.75-2.15 14.93 14.93 0 0 0-3.13-3.79c-1.64-1.53-3.32-2.74-4.22-4.93a5.62 5.62 0 0 1-.47-2.11 5 5 0 0 1 .43-2.27 10.17 10.17 0 0 1 2.8-3.82 2.19 2.19 0 0 0 0-3.23L181.76.69a2.2 2.2 0 0 0-2.94-.06 14.4 14.4 0 0 0-1.54 1.49l-.09.1a2.52 2.52 0 0 0-.27-.3L175.71.6a2.2 2.2 0 0 0-2.93-.08 15 15 0 0 0-1.59 1.51l-.08.1a3.48 3.48 0 0 0-.26-.3L169.54.6a2.2 2.2 0 0 0-2.94-.06 15.5 15.5 0 0 0-1.55 1.49c-1.6 1.76-2.85 4.3-2.42 6.77a10.07 10.07 0 0 0 1.84 4.34Zm9.67-4.25a8 8 0 0 1 .72-1.36 6.14 6.14 0 0 0 .06 1.28 10 10 0 0 0 1.88 4.34 29.7 29.7 0 0 0 3.79 3.64c1.49 1.41 3.06 3.29 2.94 5.44a5.49 5.49 0 0 1-1 2.66l-.2.27a6.91 6.91 0 0 0 0-1 6 6 0 0 0-.74-2.15 15.82 15.82 0 0 0-3.13-3.79c-1.68-1.53-3.32-2.74-4.26-4.93a7.76 7.76 0 0 1-.47-2.11 4.87 4.87 0 0 1 .41-2.29Zm-6.14 0a8.15 8.15 0 0 1 .69-1.35 6 6 0 0 0 .05 1.27 10.46 10.46 0 0 0 1.88 4.34 32.6 32.6 0 0 0 3.79 3.64c1.49 1.41 3.05 3.29 2.94 5.44a5.44 5.44 0 0 1-.94 2.66l-.23.3a9.12 9.12 0 0 0-.05-1.05 6.25 6.25 0 0 0-.74-2.15 15.14 15.14 0 0 0-3.13-3.79c-1.64-1.53-3.33-2.74-4.23-4.93a5.82 5.82 0 0 1-.47-2.11 5 5 0 0 1 .44-2.27ZM222.06 33.4l-1 3-1 3-2-6.06h-1.69v7.82h1.17v-5.8l2 5.86h1.05l1-2.93c.34-1 .66-2 1-2.93v5.86h1.12V33.4ZM209.13 34.52h2.5v6.7h1.22v-6.7h2.52V33.4h-6.24v1.12z" class="cls-1"/></svg>