<svg width="207" height="50" viewBox="0 0 207 50" fill="none" xmlns="http://www.w3.org/2000/svg">
<path d="M65.5758 22.5877H61.5645V0.901611H80.075V4.91298H65.5758V9.73795H76.0515V13.7493H65.5758V18.5743H80.075V22.5856H65.5758V22.5877Z" fill="#101010"/>
<path d="M85.8145 22.5877H81.793V10.1569C81.793 5.04453 85.9359 0.901611 91.0483 0.901611C96.1606 0.901611 100.304 5.04453 100.304 10.1569V22.5877H96.282V18.5763H85.8124V22.5877H85.8145ZM85.8145 10.1569V14.5629H96.2841V10.1569C96.2841 7.26474 93.9404 4.92107 91.0483 4.92107C88.1561 4.92107 85.8124 7.26474 85.8124 10.1569H85.8145Z" fill="#101010"/>
<path d="M116.527 16.1638C116.527 14.8301 115.446 13.7513 114.114 13.7513H108.447C104.899 13.7513 102.023 10.8734 102.023 7.32546C102.023 3.77757 104.899 0.901611 108.447 0.901611H114.114C117.662 0.901611 120.538 3.77757 120.538 7.32546H116.527C116.527 5.99171 115.446 4.91298 114.114 4.91298H108.447C107.116 4.91298 106.035 5.99171 106.035 7.32546C106.035 8.65921 107.116 9.73795 108.447 9.73795H114.114C117.662 9.73795 120.538 12.6159 120.538 16.1638C120.538 19.7117 117.662 22.5877 114.114 22.5877H108.447C104.899 22.5877 102.023 19.7117 102.023 16.1638H106.035C106.035 17.4976 107.116 18.5763 108.447 18.5763H114.114C115.446 18.5763 116.527 17.4976 116.527 16.1638Z" fill="#101010"/>
<path d="M122.283 9.31901V0.899597H126.305V9.31901C126.305 12.2091 128.648 14.5528 131.541 14.5528C134.433 14.5528 136.774 12.2091 136.774 9.31901V0.899597H140.796V9.31901C140.796 13.7412 137.693 17.4369 133.546 18.3537V22.5857H129.535V18.3537C125.388 17.4369 122.285 13.7412 122.285 9.31901H122.283Z" fill="#101010"/>
<path d="M61.5645 49.7402V28.0562H73.6512C77.1991 28.0562 80.075 30.9322 80.075 34.4801C80.075 36.1923 79.4031 37.7466 78.3122 38.8982C79.4051 40.0498 80.075 41.6042 80.075 43.3164C80.075 46.8643 77.1991 49.7402 73.6512 49.7402H61.5645ZM65.5758 36.8925H73.6512C74.9829 36.8925 76.0636 35.8138 76.0636 34.4801C76.0636 33.1463 74.9829 32.0676 73.6512 32.0676H65.5758V36.8925ZM65.5758 45.7289H73.6512C74.9829 45.7289 76.0636 44.6501 76.0636 43.3164C76.0636 41.9826 74.9829 40.9039 73.6512 40.9039H65.5758V45.7289Z" fill="#101010"/>
<path d="M81.8242 40.485V28.0542H85.8457V40.485C85.8457 43.3771 88.1894 45.7208 91.0815 45.7208C93.9737 45.7208 96.3173 43.3771 96.3173 40.485V28.0542H100.337V40.485C100.337 45.5973 96.1939 49.7403 91.0815 49.7403C85.9692 49.7403 81.8262 45.5973 81.8262 40.485H81.8242Z" fill="#101010"/>
<path d="M116.558 43.3164C116.558 41.9827 115.477 40.9039 114.145 40.9039H108.479C104.931 40.9039 102.055 38.0259 102.055 34.478C102.055 30.9302 104.931 28.0542 108.479 28.0542H114.145C117.693 28.0542 120.569 30.9302 120.569 34.478H116.558C116.558 33.1443 115.477 32.0656 114.145 32.0656H108.479C107.147 32.0656 106.066 33.1443 106.066 34.478C106.066 35.8118 107.147 36.8905 108.479 36.8905H114.145C117.693 36.8905 120.569 39.7685 120.569 43.3164C120.569 46.8643 117.693 49.7403 114.145 49.7403H108.479C104.931 49.7403 102.055 46.8643 102.055 43.3164H106.066C106.066 44.6502 107.147 45.7289 108.479 45.7289H114.145C115.477 45.7289 116.558 44.6502 116.558 43.3164Z" fill="#101010"/>
<path d="M122.314 49.7403V28.0542H126.326V49.7403H122.314Z" fill="#101010"/>
<path d="M128.045 28.0542H132.056H132.795L137.298 35.152L139.672 38.8983L142.542 43.4196V28.0522H146.554V49.7383H141.803L137.298 42.6384L134.922 38.8942L132.054 34.3728V49.7362H128.043V28.0502L128.045 28.0542Z" fill="#101010"/>
<path d="M152.287 49.7403H148.275V28.0542H166.786V32.0656H152.287V36.8905H166.786V40.9019H152.287V45.7269H166.786V49.7382H152.287V49.7403Z" fill="#101010"/>
<path d="M183.007 43.3164C183.007 41.9827 181.926 40.9039 180.595 40.9039H174.928C171.38 40.9039 168.504 38.0259 168.504 34.478C168.504 30.9302 171.38 28.0542 174.928 28.0542H180.595C184.143 28.0542 187.019 30.9302 187.019 34.478H183.007C183.007 33.1443 181.926 32.0656 180.595 32.0656H174.928C173.596 32.0656 172.515 33.1443 172.515 34.478C172.515 35.8118 173.596 36.8905 174.928 36.8905H180.595C184.143 36.8905 187.019 39.7685 187.019 43.3164C187.019 46.8643 184.143 49.7403 180.595 49.7403H174.928C171.38 49.7403 168.504 46.8643 168.504 43.3164H172.515C172.515 44.6502 173.596 45.7289 174.928 45.7289H180.595C181.926 45.7289 183.007 44.6502 183.007 43.3164Z" fill="#101010"/>
<path d="M202.804 43.3164C202.804 41.9827 201.723 40.9039 200.392 40.9039H194.725C191.177 40.9039 188.301 38.0259 188.301 34.478C188.301 30.9302 191.177 28.0542 194.725 28.0542H200.392C203.939 28.0542 206.815 30.9302 206.815 34.478H202.804C202.804 33.1443 201.723 32.0656 200.392 32.0656H194.725C193.393 32.0656 192.312 33.1443 192.312 34.478C192.312 35.8118 193.393 36.8905 194.725 36.8905H200.392C203.939 36.8905 206.815 39.7685 206.815 43.3164C206.815 46.8643 203.939 49.7403 200.392 49.7403H194.725C191.177 49.7403 188.301 46.8643 188.301 43.3164H192.312C192.312 44.6502 193.393 45.7289 194.725 45.7289H200.392C201.723 45.7289 202.804 44.6502 202.804 43.3164Z" fill="#101010"/>
<path d="M48.9577 25.3221C48.9577 38.8079 38.0253 49.7404 24.5394 49.7404C11.0535 49.7404 0.121094 38.8079 0.121094 25.3221C0.121094 11.8362 11.0535 0.903748 24.5394 0.903748C38.0253 0.903748 48.9577 11.8362 48.9577 25.3221ZM7.67221 25.3221C7.67221 34.6376 15.2239 42.1893 24.5394 42.1893C33.8549 42.1893 41.4066 34.6376 41.4066 25.3221C41.4066 16.0066 33.8549 8.45486 24.5394 8.45486C15.2239 8.45486 7.67221 16.0066 7.67221 25.3221Z" fill="url(#paint0_linear_17_1243)"/>
<defs>
<linearGradient id="paint0_linear_17_1243" x1="0.121094" y1="25.3153" x2="48.9577" y2="25.3153" gradientUnits="userSpaceOnUse">
<stop stop-color="#FF2828"/>
<stop offset="0.510417" stop-color="#78A5FD"/>
<stop offset="1" stop-color="#37F3FF"/>
</linearGradient>
</defs>
</svg>
