<svg width="574" height="70" viewBox="0 0 574 70" fill="none" xmlns="http://www.w3.org/2000/svg">
<path d="M217.099 49.0122L228.284 33.6185V37.3342L217.63 22.4714H223.203L231.128 33.4669L228.853 33.5048L236.701 22.4714H242.047L231.469 37.0688V33.5048L242.73 49.0122H237.043L228.701 37.3342H230.938L222.711 49.0122H217.099Z" fill="#FEFEFE"/>
<path d="M269.154 14.3257H303.09V54.1167H295.757V21.7155H276.544V54.1167H269.154V14.3257ZM311.237 19.328C314.572 15.9932 318.57 14.3257 323.231 14.3257C327.93 14.3257 331.928 15.9932 335.225 19.328C338.56 22.625 340.228 26.623 340.228 31.3222V54.1167H332.895V46.7269H313.681V54.1167H306.292V31.3222C306.292 26.623 307.94 22.625 311.237 19.328ZM332.895 39.394V31.3222C332.895 28.6694 331.947 26.4146 330.053 24.5577C328.196 22.6629 325.941 21.7155 323.288 21.7155C320.635 21.7155 318.362 22.6629 316.467 24.5577C314.61 26.4146 313.681 28.6694 313.681 31.3222V39.394H332.895ZM361.904 14.3257C366.186 14.3257 369.843 15.8416 372.874 18.8733C375.906 21.8671 377.403 25.5051 377.365 29.7874C377.365 34.0696 375.849 37.7266 372.818 40.7583C369.824 43.7521 366.186 45.249 361.904 45.249H350.819V54.1167H343.429V14.3257H361.904ZM361.904 37.9161C364.139 37.9161 366.053 37.1203 367.645 35.5286C369.236 33.937 370.032 32.0232 370.032 29.7874C370.032 27.5515 369.236 25.6567 367.645 24.1029C366.053 22.5113 364.139 21.7155 361.904 21.7155H350.819V37.9161H361.904ZM377.736 14.3257H411.672V21.7155H398.427V54.1167H391.037V21.7155H377.736V14.3257ZM441.476 14.3257H448.809V54.1167H441.476V37.9161H422.263V54.1167H414.873V14.3257H422.263V30.5263H441.476V14.3257ZM485.947 21.7155H459.4V30.5263H485.947V37.9161H459.4V46.7838H485.947V54.1167H459.4H452.011V14.3257H485.947V21.7155ZM507.622 14.3257C511.905 14.3257 515.562 15.8416 518.593 18.8733C521.625 21.8671 523.122 25.5051 523.084 29.7874C523.084 34.0696 521.568 37.7266 518.536 40.7583C515.543 43.7521 511.905 45.249 507.622 45.249H496.538V54.1167H489.148V14.3257H507.622ZM507.622 37.9161C509.858 37.9161 511.772 37.1203 513.364 35.5286C514.955 33.937 515.751 32.0232 515.751 29.7874C515.751 27.5515 514.955 25.6567 513.364 24.1029C511.772 22.5113 509.858 21.7155 507.622 21.7155H496.538V37.9161H507.622ZM544.76 23.1934C547.564 23.1934 550.16 23.8945 552.548 25.2967C554.935 26.6609 556.811 28.5368 558.175 30.9242C559.539 33.2738 560.222 35.8507 560.222 38.6551C560.222 42.9373 558.706 46.5943 555.674 49.626C552.68 52.6198 549.042 54.1167 544.76 54.1167H526.286V14.3257H533.618V23.1934H544.76ZM544.76 46.7269C546.996 46.7269 548.91 45.9501 550.501 44.3963C552.093 42.8047 552.889 40.8909 552.889 38.6551C552.889 36.4192 552.093 34.5054 550.501 32.9138C548.91 31.3222 546.996 30.5263 544.76 30.5263H533.618V46.7269H544.76ZM570.624 54.1167H563.234V14.3257H570.624V54.1167Z" fill="#FEFEFE"/>
<path d="M5.84231 33.2226H0.458984V4.11951H25.3005V9.50283H5.84231V15.978H19.9009V21.3614H5.84231V27.8366H25.3005V33.2199H5.84231V33.2226Z" fill="white"/>
<path d="M33.0024 33.2226H27.6055V16.5403C27.6055 9.67938 33.1653 4.11951 40.0262 4.11951C46.8871 4.11951 52.447 9.67938 52.447 16.5403V33.2226H47.0501V27.8393H32.9997V33.2226H33.0024ZM33.0024 16.5403V22.4532H47.0528V16.5403C47.0528 12.659 43.9076 9.5137 40.0262 9.5137C36.1449 9.5137 32.9997 12.659 32.9997 16.5403H33.0024Z" fill="white"/>
<path d="M74.2215 24.6017C74.2215 22.8118 72.771 21.3641 70.9838 21.3641H63.3787C58.6174 21.3641 54.7578 17.5018 54.7578 12.7404C54.7578 7.9791 58.6174 4.11951 63.3787 4.11951H70.9838C75.7452 4.11951 79.6048 7.9791 79.6048 12.7404H74.2215C74.2215 10.9505 72.771 9.50283 70.9838 9.50283H63.3787C61.5915 9.50283 60.1411 10.9505 60.1411 12.7404C60.1411 14.5304 61.5915 15.978 63.3787 15.978H70.9838C75.7452 15.978 79.6048 19.8403 79.6048 24.6017C79.6048 29.363 75.7452 33.2226 70.9838 33.2226H63.3787C58.6174 33.2226 54.7578 29.363 54.7578 24.6017H60.1411C60.1411 26.3916 61.5915 27.8393 63.3787 27.8393H70.9838C72.771 27.8393 74.2215 26.3916 74.2215 24.6017Z" fill="white"/>
<path d="M81.9453 15.4157V4.1167H87.3422V15.4157C87.3422 19.2943 90.4875 22.4396 94.3688 22.4396C98.2501 22.4396 101.393 19.2943 101.393 15.4157V4.1167H106.79V15.4157C106.79 21.3504 102.626 26.31 97.0604 27.5404V33.2198H91.6771V27.5404C86.1118 26.31 81.948 21.3504 81.948 15.4157H81.9453Z" fill="white"/>
<path d="M0.458984 69.6617V40.5613H16.6796C21.4409 40.5613 25.3005 44.4209 25.3005 49.1822C25.3005 51.48 24.3988 53.566 22.9348 55.1115C24.4015 56.6569 25.3005 58.7429 25.3005 61.0407C25.3005 65.8021 21.4409 69.6617 16.6796 69.6617H0.458984ZM5.84231 52.4198H16.6796C18.4668 52.4198 19.9172 50.9721 19.9172 49.1822C19.9172 47.3923 18.4668 45.9446 16.6796 45.9446H5.84231V52.4198ZM5.84231 64.2783H16.6796C18.4668 64.2783 19.9172 62.8307 19.9172 61.0407C19.9172 59.2508 18.4668 57.8031 16.6796 57.8031H5.84231V64.2783Z" fill="white"/>
<path d="M27.6465 57.2411V40.5587H33.0434V57.2411C33.0434 61.1224 36.1886 64.2676 40.07 64.2676C43.9513 64.2676 47.0965 61.1224 47.0965 57.2411V40.5587H52.4907V57.2411C52.4907 64.102 46.9309 69.6618 40.07 69.6618C33.2091 69.6618 27.6492 64.102 27.6492 57.2411H27.6465Z" fill="white"/>
<path d="M74.2605 61.0409C74.2605 59.251 72.8101 57.8033 71.0229 57.8033H63.4178C58.6565 57.8033 54.7969 53.941 54.7969 49.1796C54.7969 44.4183 58.6565 40.5587 63.4178 40.5587H71.0229C75.7842 40.5587 79.6438 44.4183 79.6438 49.1796H74.2605C74.2605 47.3897 72.8101 45.942 71.0229 45.942H63.4178C61.6306 45.942 60.1802 47.3897 60.1802 49.1796C60.1802 50.9696 61.6306 52.4172 63.4178 52.4172H71.0229C75.7842 52.4172 79.6438 56.2796 79.6438 61.0409C79.6438 65.8022 75.7842 69.6618 71.0229 69.6618H63.4178C58.6565 69.6618 54.7969 65.8022 54.7969 61.0409H60.1802C60.1802 62.8308 61.6306 64.2785 63.4178 64.2785H71.0229C72.8101 64.2785 74.2605 62.8308 74.2605 61.0409Z" fill="white"/>
<path d="M81.9863 69.6618V40.5587H87.3697V69.6618H81.9863Z" fill="white"/>
<path d="M89.6765 40.5587H95.0599H96.0513L102.095 50.084L105.281 55.1116L109.132 61.1794V40.5559H114.515V69.659H108.141L102.095 60.1309L98.9059 55.1061L95.0572 49.0383V69.6563H89.6738V40.5532L89.6765 40.5587Z" fill="white"/>
<path d="M122.211 69.6618H116.828V40.5587H141.67V45.942H122.211V52.4172H141.67V57.8006H122.211V64.2758H141.67V69.6591H122.211V69.6618Z" fill="white"/>
<path d="M163.438 61.0409C163.438 59.251 161.988 57.8033 160.201 57.8033H152.596C147.834 57.8033 143.975 53.941 143.975 49.1796C143.975 44.4183 147.834 40.5587 152.596 40.5587H160.201C164.962 40.5587 168.822 44.4183 168.822 49.1796H163.438C163.438 47.3897 161.988 45.942 160.201 45.942H152.596C150.808 45.942 149.358 47.3897 149.358 49.1796C149.358 50.9696 150.808 52.4172 152.596 52.4172H160.201C164.962 52.4172 168.822 56.2796 168.822 61.0409C168.822 65.8022 164.962 69.6618 160.201 69.6618H152.596C147.834 69.6618 143.975 65.8022 143.975 61.0409H149.358C149.358 62.8308 150.808 64.2785 152.596 64.2785H160.201C161.988 64.2785 163.438 62.8308 163.438 61.0409Z" fill="white"/>
<path d="M190.005 61.0409C190.005 59.251 188.554 57.8033 186.767 57.8033H179.162C174.401 57.8033 170.541 53.941 170.541 49.1796C170.541 44.4183 174.401 40.5587 179.162 40.5587H186.767C191.528 40.5587 195.388 44.4183 195.388 49.1796H190.005C190.005 47.3897 188.554 45.942 186.767 45.942H179.162C177.375 45.942 175.924 47.3897 175.924 49.1796C175.924 50.9696 177.375 52.4172 179.162 52.4172H186.767C191.528 52.4172 195.388 56.2796 195.388 61.0409C195.388 65.8022 191.528 69.6618 186.767 69.6618H179.162C174.401 69.6618 170.541 65.8022 170.541 61.0409H175.924C175.924 62.8308 177.375 64.2785 179.162 64.2785H186.767C188.554 64.2785 190.005 62.8308 190.005 61.0409Z" fill="white"/>
</svg>
