<svg width="51" height="51" viewBox="0 0 51 51" fill="none" xmlns="http://www.w3.org/2000/svg">
<path d="M27.7305 34.0747L34.2305 27.5747C34.7305 27.0747 34.9805 26.4914 34.9805 25.8247C34.9805 25.158 34.7305 24.5747 34.2305 24.0747L27.668 17.5122C27.2096 17.0539 26.6371 16.8347 25.9505 16.8547C25.2621 16.8764 24.6888 17.1164 24.2305 17.5747C23.7721 18.033 23.543 18.6164 23.543 19.3247C23.543 20.033 23.7721 20.6164 24.2305 21.0747L26.4805 23.3247H18.418C17.7096 23.3247 17.1263 23.5639 16.668 24.0422C16.2096 24.5222 15.9805 25.1164 15.9805 25.8247C15.9805 26.533 16.2205 27.1264 16.7005 27.6047C17.1788 28.0847 17.7721 28.3247 18.4805 28.3247H26.4805L24.168 30.6372C23.7096 31.0955 23.4905 31.6689 23.5105 32.3572C23.5321 33.0439 23.7721 33.6164 24.2305 34.0747C24.6888 34.533 25.2721 34.7622 25.9805 34.7622C26.6888 34.7622 27.2721 34.533 27.7305 34.0747ZM25.9805 50.8247C22.5221 50.8247 19.2721 50.168 16.2305 48.8547C13.1888 47.543 10.543 45.7622 8.29297 43.5122C6.04297 41.2622 4.26214 38.6164 2.95047 35.5747C1.63714 32.533 0.980469 29.283 0.980469 25.8247C0.980469 22.3664 1.63714 19.1164 2.95047 16.0747C4.26214 13.033 6.04297 10.3872 8.29297 8.13721C10.543 5.88721 13.1888 4.10554 16.2305 2.79221C19.2721 1.48054 22.5221 0.824707 25.9805 0.824707C29.4388 0.824707 32.6888 1.48054 35.7305 2.79221C38.7721 4.10554 41.418 5.88721 43.668 8.13721C45.918 10.3872 47.6988 13.033 49.0105 16.0747C50.3238 19.1164 50.9805 22.3664 50.9805 25.8247C50.9805 29.283 50.3238 32.533 49.0105 35.5747C47.6988 38.6164 45.918 41.2622 43.668 43.5122C41.418 45.7622 38.7721 47.543 35.7305 48.8547C32.6888 50.168 29.4388 50.8247 25.9805 50.8247ZM25.9805 45.8247C31.5221 45.8247 36.2413 43.8772 40.138 39.9822C44.033 36.0855 45.9805 31.3664 45.9805 25.8247C45.9805 20.283 44.033 15.5639 40.138 11.6672C36.2413 7.77221 31.5221 5.82471 25.9805 5.82471C20.4388 5.82471 15.7205 7.77221 11.8255 11.6672C7.9288 15.5639 5.98047 20.283 5.98047 25.8247C5.98047 31.3664 7.9288 36.0855 11.8255 39.9822C15.7205 43.8772 20.4388 45.8247 25.9805 45.8247Z" fill="white"/>
</svg>
