<svg width="173" height="42" fill="none" xmlns="http://www.w3.org/2000/svg"><path d="M55.027 18.492h-3.343V.42H67.11v3.343H55.026v4.021h8.73v3.343h-8.73v4.021H67.11v3.344H55.026v.001ZM71.894 18.492h-3.351V8.132A7.713 7.713 0 0 1 76.256.42a7.713 7.713 0 0 1 7.714 7.713v10.36h-3.352V15.15h-8.725v3.343h.001Zm0-10.36v3.672h8.726V8.132a4.363 4.363 0 1 0-8.727 0h.001ZM97.492 13.138c0-1.111-.901-2.01-2.011-2.01h-4.723a5.355 5.355 0 0 1 0-10.71h4.723a5.354 5.354 0 0 1 5.354 5.354h-3.343c0-1.111-.901-2.01-2.011-2.01h-4.723a2.01 2.01 0 1 0 0 4.021h4.723a5.355 5.355 0 0 1 0 10.71h-4.723a5.354 5.354 0 0 1-5.354-5.355h3.343c0 1.112.901 2.011 2.011 2.011h4.723a2.01 2.01 0 0 0 2.01-2.01ZM102.287 7.434V.417h3.352v7.017a4.362 4.362 0 0 0 8.725 0V.417h3.352v7.017a7.715 7.715 0 0 1-6.042 7.53v3.526h-3.343v-3.526a7.715 7.715 0 0 1-6.042-7.53h-.002ZM51.684 41.122V23.05h10.073a5.354 5.354 0 0 1 3.884 9.036 5.354 5.354 0 0 1-3.885 9.036H51.685Zm3.343-10.708h6.73a2.01 2.01 0 1 0 0-4.021h-6.73v4.021Zm0 7.364h6.73a2.01 2.01 0 1 0 0-4.02h-6.73v4.02ZM68.568 33.408v-10.36h3.352v10.36a4.363 4.363 0 1 0 8.727 0v-10.36h3.35v10.36a7.713 7.713 0 0 1-7.713 7.714 7.713 7.713 0 0 1-7.714-7.714h-.002ZM97.517 35.768c0-1.111-.9-2.01-2.01-2.01h-4.724a5.355 5.355 0 0 1 0-10.71h4.723a5.354 5.354 0 0 1 5.354 5.354h-3.343c0-1.111-.9-2.01-2.01-2.01h-4.724a2.01 2.01 0 1 0 0 4.02h4.723a5.355 5.355 0 0 1 0 10.71h-4.723a5.354 5.354 0 0 1-5.353-5.354h3.343c0 1.112.9 2.01 2.01 2.01h4.723c1.11 0 2.01-.898 2.01-2.01ZM102.312 41.122V23.048h3.344v18.074h-3.344ZM107.09 23.048h3.958l3.753 5.916 1.979 3.122 2.392 3.768V23.047h3.343V41.12h-3.959l-3.755-5.917-1.98-3.12-2.39-3.769v12.804h-3.343V23.045l.002.003ZM127.294 41.122h-3.343V23.048h15.427v3.344h-12.084v4.02h12.084v3.344h-12.084v4.021h12.084v3.343h-12.084v.002ZM152.896 35.768a2.01 2.01 0 0 0-2.011-2.01h-4.723a5.354 5.354 0 0 1 0-10.71h4.723a5.354 5.354 0 0 1 5.354 5.354h-3.343a2.01 2.01 0 0 0-2.011-2.01h-4.723a2.01 2.01 0 1 0 0 4.02h4.723a5.355 5.355 0 0 1 0 10.71h-4.723a5.353 5.353 0 0 1-5.353-5.354h3.343c0 1.112.9 2.01 2.01 2.01h4.723c1.11 0 2.011-.898 2.011-2.01ZM169.394 35.768a2.01 2.01 0 0 0-2.011-2.01h-4.723a5.354 5.354 0 0 1 0-10.71h4.723a5.354 5.354 0 0 1 5.354 5.354h-3.343a2.01 2.01 0 0 0-2.011-2.01h-4.723a2.01 2.01 0 1 0 0 4.02h4.723a5.355 5.355 0 0 1 0 10.71h-4.723a5.353 5.353 0 0 1-5.353-5.354h3.343c0 1.112.9 2.01 2.01 2.01h4.723c1.11 0 2.011-.898 2.011-2.01Z" fill="#fff"/><path d="M41.178 20.77c0 11.24-9.112 20.351-20.35 20.351-11.24 0-20.351-9.11-20.351-20.35C.477 9.53 9.587.42 20.827.42c11.24 0 20.35 9.11 20.35 20.35Zm-34.408 0c0 7.765 6.293 14.058 14.057 14.058s14.057-6.293 14.057-14.057S28.591 6.714 20.827 6.714 6.77 13.007 6.77 20.77Z" fill="url(#a)"/><defs><linearGradient id="a" x1=".477" y1="20.765" x2="41.178" y2="20.765" gradientUnits="userSpaceOnUse"><stop stop-color="#FF2828"/><stop offset=".51" stop-color="#78A5FD"/><stop offset="1" stop-color="#37F3FF"/></linearGradient></defs></svg>