<svg width="541" height="35" viewBox="0 0 541 35" fill="none" xmlns="http://www.w3.org/2000/svg">
<path d="M23.0074 0.331955H29.2726V34.3291H23.0074V26.8012H14.7995C12.1769 26.8012 9.74849 26.1536 7.51439 24.8585C5.28029 23.5633 3.51568 21.7987 2.22055 19.5646C0.925419 17.3305 0.277855 14.9022 0.277855 12.2795V0.331955H6.59161V12.2795C6.59161 14.546 7.38488 16.4887 8.97141 18.1076C10.5903 19.6941 12.533 20.4874 14.7995 20.4874H23.0074V0.331955ZM61.0026 6.64571H38.3216V14.1737H61.0026V20.4874H38.3216V28.0639H61.0026V34.3291H38.3216H32.0079V0.331955H61.0026V6.64571ZM86.4674 0.331955H92.7812V34.3291H86.4674V19.4189L81.5621 34.3291H74.957L70.0031 19.4189V34.3291H63.7379V0.331955H70.0031H70.3431L78.2596 24.2757L86.1275 0.331955H86.4674ZM135.13 0.331955H141.443V34.3291H135.13V19.4189L130.224 34.3291H123.619L118.665 19.4189V34.3291H112.4V0.331955H118.665H119.005L126.922 24.2757L134.79 0.331955H135.13ZM159.962 7.90846C162.358 7.90846 164.576 8.50746 166.616 9.70545C168.656 10.8711 170.258 12.4738 171.424 14.5136C172.59 16.5211 173.172 18.7228 173.172 21.1188C173.172 24.7775 171.877 27.902 169.287 30.4923C166.729 33.0502 163.621 34.3291 159.962 34.3291H144.178V0.331955H150.443V7.90846H159.962ZM159.962 28.0153C161.872 28.0153 163.507 27.3516 164.867 26.0241C166.227 24.6642 166.907 23.0291 166.907 21.1188C166.907 19.2085 166.227 17.5734 164.867 16.2135C163.507 14.8536 161.872 14.1737 159.962 14.1737H150.443V28.0153H159.962ZM182.06 34.3291H175.746V0.331955H182.06V34.3291ZM230.705 10.3854C230.705 13.0728 229.782 15.3878 227.937 17.3305C229.782 19.2732 230.705 21.5883 230.705 24.2757C230.705 27.0602 229.717 29.44 227.742 31.4151C225.767 33.3578 223.387 34.3291 220.603 34.3291H211.715C208.931 34.3291 206.551 33.3578 204.576 31.4151C202.633 29.44 201.662 27.0602 201.662 24.2757H207.975C207.975 25.3118 208.332 26.2022 209.044 26.9469C209.789 27.6592 210.679 28.0153 211.715 28.0153H220.603C221.639 28.0153 222.529 27.6592 223.274 26.9469C224.019 26.2022 224.391 25.3118 224.391 24.2757C224.391 23.5633 224.213 22.932 223.857 22.3815C223.533 21.7987 223.08 21.3454 222.497 21.0216C221.914 20.6655 221.283 20.4874 220.603 20.4874H216.183V14.1737H220.603C221.639 14.1737 222.529 13.8175 223.274 13.1052C224.019 12.3605 224.391 11.4539 224.391 10.3854C224.391 9.70546 224.213 9.07408 223.857 8.49127C223.533 7.90846 223.08 7.45517 222.497 7.13139C221.914 6.8076 221.283 6.64571 220.603 6.64571H211.715C210.679 6.64571 209.789 7.01806 209.044 7.76276C208.332 8.47508 207.975 9.34929 207.975 10.3854H201.662C201.662 7.63325 202.633 5.26964 204.576 3.29456C206.551 1.31949 208.931 0.331955 211.715 0.331955H220.603C223.387 0.331955 225.767 1.31949 227.742 3.29456C229.717 5.26964 230.705 7.63325 230.705 10.3854ZM237.664 4.60588C240.514 1.7566 243.93 0.331955 247.912 0.331955C251.927 0.331955 255.343 1.7566 258.16 4.60588C261.009 7.42279 262.434 10.8387 262.434 14.8536V34.3291H256.169V28.0153H239.753V34.3291H233.439V14.8536C233.439 10.8387 234.848 7.42279 237.664 4.60588ZM256.169 21.7502V14.8536C256.169 12.5871 255.359 10.6606 253.74 9.07408C252.154 7.45517 250.227 6.64571 247.961 6.64571C245.694 6.64571 243.752 7.45517 242.133 9.07408C240.546 10.6606 239.753 12.5871 239.753 14.8536V21.7502H256.169ZM287.899 0.331955H294.164V34.3291H287.899V20.4874H271.483V34.3291H265.169V0.331955H271.483V14.1737H287.899V0.331955ZM318.463 0.331955H325.942V34.3291H319.629V10.2397L315.112 17.3305L311.421 23.2072L304.33 34.3291H303.213H296.899V0.331955H303.213V24.4214L307.681 17.3305L311.421 11.4539L318.463 0.331955ZM351.406 0.331955H357.72V34.3291H351.406V19.4189L346.501 34.3291H339.896L334.942 19.4189V34.3291H328.677V0.331955H334.942H335.282L343.198 24.2757L351.066 0.331955H351.406ZM364.679 4.60588C367.529 1.7566 370.945 0.331955 374.927 0.331955C378.942 0.331955 382.358 1.7566 385.175 4.60588C388.024 7.42279 389.449 10.8387 389.449 14.8536V34.3291H383.184V28.0153H366.768V34.3291H360.454V14.8536C360.454 10.8387 361.863 7.42279 364.679 4.60588ZM383.184 21.7502V14.8536C383.184 12.5871 382.374 10.6606 380.755 9.07408C379.169 7.45517 377.242 6.64571 374.976 6.64571C372.709 6.64571 370.767 7.45517 369.148 9.07408C367.561 10.6606 366.768 12.5871 366.768 14.8536V21.7502H383.184ZM421.179 6.64571H398.498V14.1737H421.179V20.4874H398.498V28.0639H421.179V34.3291H398.498H392.184V0.331955H421.179V6.64571ZM446.644 0.331955H452.957V34.3291H446.644V19.4189L441.738 34.3291H435.133L430.179 19.4189V34.3291H423.914V0.331955H430.179H430.519L438.436 24.2757L446.304 0.331955H446.644ZM461.957 17.3305C461.957 20.2769 463.009 22.8025 465.114 24.907C467.218 27.0116 469.744 28.0639 472.69 28.0639C475.637 28.0639 478.162 27.0116 480.267 24.907L484.686 29.3267C482.517 31.5284 479.975 33.0178 477.061 33.7949C474.147 34.5719 471.233 34.5719 468.319 33.7949C465.405 33.0178 462.847 31.5446 460.645 29.3752C458.476 27.1735 457.003 24.6156 456.226 21.7016C455.481 18.7875 455.481 15.8735 456.226 12.9595C457.003 10.0454 458.492 7.50374 460.694 5.33439C461.763 4.23353 462.961 3.31075 464.288 2.56605C465.616 1.78898 466.975 1.22236 468.368 0.866198C469.76 0.510036 471.201 0.331955 472.69 0.331955C474.18 0.331955 475.62 0.526225 477.013 0.914765C478.405 1.27092 479.765 1.82135 481.092 2.56605C482.42 3.31075 483.618 4.23353 484.686 5.33439L480.267 9.75402C478.162 7.68181 475.637 6.64571 472.69 6.64571C469.744 6.64571 467.218 7.698 465.114 9.80259C463.009 11.8748 461.957 14.3841 461.957 17.3305ZM514.757 6.64571V20.4874V26.7526V34.3291H508.444V26.7526H498.925C498.601 26.7526 498.293 26.7526 498.002 26.7526C497.646 26.7202 497.241 26.6555 496.788 26.5583C495.946 28.8572 494.521 30.7351 492.514 32.1921C490.506 33.6168 488.24 34.3291 485.714 34.3291V28.0639C486.524 28.0639 487.285 27.8858 487.997 27.5297C488.742 27.1735 489.357 26.704 489.842 26.1212C490.36 25.5384 490.733 24.8585 490.959 24.0814C489.341 22.851 488.062 21.3131 487.123 19.4675C486.184 17.6219 485.714 15.6469 485.714 13.5423C485.714 9.88354 486.993 6.77523 489.551 4.21735C492.141 1.62709 495.266 0.331955 498.925 0.331955H514.757V6.64571ZM508.444 20.4874V6.64571H498.925C497.014 6.64571 495.379 7.32565 494.019 8.68554C492.692 10.013 492.028 11.632 492.028 13.5423C492.028 14.3517 492.157 15.1288 492.416 15.8735C492.676 16.6182 493.032 17.2982 493.485 17.9133C493.971 18.4961 494.537 18.9818 495.185 19.3704C496.318 20.1151 497.565 20.4874 498.925 20.4874H508.444ZM531.965 34.3291H525.7V28.0153H531.965V34.3291ZM530.119 0.331955C532.904 0.331955 535.267 1.31949 537.21 3.29456C539.185 5.23726 540.173 7.60087 540.173 10.3854C540.173 12.0043 539.816 13.5261 539.104 14.9507C538.392 16.343 537.404 17.5086 536.142 18.4476C534.911 19.3865 533.519 20.0017 531.965 20.2931V25.1984H525.7V17.7676C525.7 16.7639 526.04 15.9221 526.719 15.2421C527.432 14.5298 528.29 14.1737 529.294 14.1737H530.119C531.155 14.1737 532.046 13.8175 532.79 13.1052C533.535 12.3605 533.907 11.4539 533.907 10.3854C533.907 9.70546 533.729 9.07408 533.373 8.49127C533.049 7.90846 532.596 7.45517 532.013 7.13139C531.43 6.8076 530.799 6.64571 530.119 6.64571H527.545C527.059 6.64571 526.574 6.74285 526.088 6.93712C525.635 7.13139 525.23 7.4066 524.874 7.76276C524.55 8.08654 524.291 8.49127 524.097 8.97694C523.903 9.43024 523.805 9.89972 523.805 10.3854H517.492C517.492 7.60087 518.463 5.23726 520.406 3.29456C522.381 1.31949 524.761 0.331955 527.545 0.331955H530.119Z" fill="#FEFEFE"/>
</svg>
